<?xml version="1.0" standalone="no"?>
<!DOCTYPE svg PUBLIC "-//W3C//DTD SVG 20010904//EN"
 "http://www.w3.org/TR/2001/REC-SVG-20010904/DTD/svg10.dtd">
<svg version="1.0" xmlns="http://www.w3.org/2000/svg"
 width="128.000000pt" height="128.000000pt" viewBox="0 0 128.000000 128.000000"
 preserveAspectRatio="xMidYMid meet">
<metadata>
Created by potrace 1.11, written by Peter Selinger 2001-2013
</metadata>
<g transform="translate(0.000000,128.000000) scale(0.100000,-0.100000)"
fill="#000000" stroke="none">
<path d="M576 1261 c-44 -29 -68 -74 -64 -118 l3 -38 -99 -59 c-89 -53 -101
-58 -120 -46 -79 50 -125 49 -183 -3 -65 -61 -52 -158 29 -207 l33 -20 1 -130
1 -130 -33 -20 c-98 -57 -95 -183 6 -235 35 -18 93 -11 130 15 36 26 30 27
145 -41 l90 -54 -3 -38 c-6 -67 60 -137 128 -137 68 0 134 70 128 137 -3 36
-1 39 52 72 30 18 76 45 102 58 l47 25 29 -21 c67 -47 162 -25 196 45 31 67
13 129 -50 169 l-42 27 1 131 2 132 29 15 c96 49 96 187 1 233 -41 20 -96 15
-133 -11 -16 -12 -33 -22 -36 -22 -3 0 -44 23 -92 50 -48 28 -91 50 -95 50 -5
0 -9 21 -9 48 0 78 -49 132 -124 139 -29 3 -50 -2 -70 -16z m-19 -212 c6 -6
22 -17 35 -23 22 -11 23 -17 23 -115 1 -103 -8 -131 -37 -131 -6 0 -19 -7 -29
-16 -16 -15 -21 -14 -58 7 -33 18 -43 20 -56 9 -19 -15 -7 -33 37 -56 24 -12
28 -19 22 -37 -5 -12 -7 -42 -6 -67 l2 -45 -91 -54 -91 -53 -39 17 c-36 17
-39 21 -40 59 0 66 -1 189 0 211 1 13 15 28 37 40 41 22 64 60 67 111 2 33 8
38 102 94 55 32 102 59 106 59 3 1 10 -4 16 -10z m286 -49 l104 -60 1 -43 1
-42 -97 -57 c-94 -55 -97 -57 -117 -39 -11 9 -31 22 -45 28 -25 10 -25 13 -25
116 l0 106 35 24 c19 14 36 26 37 26 0 1 48 -26 106 -59z m176 -207 c21 -12
31 -26 32 -43 1 -23 0 -229 -1 -240 0 -3 -14 -11 -30 -19 -30 -12 -35 -11
-113 34 -45 27 -90 53 -100 59 -11 7 -16 20 -14 36 2 14 1 37 -3 51 -7 24 -2
30 84 82 50 31 96 57 103 57 6 0 25 -8 42 -17z m-152 -303 c74 -43 92 -58 87
-72 -3 -10 -6 -31 -6 -48 -1 -27 -10 -35 -82 -77 -134 -77 -125 -74 -156 -51
-39 28 -101 28 -140 0 l-30 -22 -103 60 -104 60 -1 43 -2 42 97 57 c83 49 100
55 113 44 8 -8 29 -21 46 -29 27 -14 31 -21 29 -49 -4 -42 3 -58 25 -58 22 0
28 14 25 59 -2 29 2 35 29 46 17 7 40 22 51 33 11 11 22 19 25 17 3 -1 47 -26
97 -55z"/>
<path d="M357 833 c-15 -14 -7 -43 12 -43 23 0 34 23 18 39 -13 13 -21 14 -30
4z"/>
<path d="M620 314 c0 -33 33 -30 38 4 3 17 -2 22 -17 22 -16 0 -21 -6 -21 -26z"/>
</g>
</svg>
